<?xml version="1.0" standalone="no"?>
<!DOCTYPE svg PUBLIC "-//W3C//DTD SVG 20010904//EN"
 "http://www.w3.org/TR/2001/REC-SVG-20010904/DTD/svg10.dtd">
<svg version="1.0" xmlns="http://www.w3.org/2000/svg"
 width="80.000000pt" height="80.000000pt" viewBox="0 0 80.000000 80.000000"
 preserveAspectRatio="xMidYMid meet">
<metadata>
Created by potrace 1.11, written by Peter Selinger 2001-2013
</metadata>
<g transform="translate(0.000000,80.000000) scale(0.100000,-0.100000)"
fill="#000000" stroke="none">
<path d="M290 654 c-65 -30 -105 -65 -131 -116 -10 -21 -19 -39 -19 -41 0 -3
17 -7 38 -10 28 -5 50 -20 95 -67 32 -33 73 -68 90 -76 28 -15 31 -15 44 2 20
27 26 80 14 115 -16 46 -14 57 14 84 31 32 59 32 90 0 35 -34 31 -57 -20 -115
-52 -58 -62 -88 -47 -138 14 -45 -2 -82 -39 -96 -23 -8 -36 -3 -89 32 -59 40
-92 51 -158 56 l-30 2 18 -37 c11 -20 38 -53 61 -72 128 -110 334 -80 423 62
39 61 40 75 6 88 -62 23 -62 103 0 126 36 14 36 20 9 72 -32 61 -68 95 -134
126 -80 38 -157 39 -235 3z"/>
<path d="M636 424 c-31 -30 -9 -84 34 -84 24 0 50 26 50 50 0 43 -54 65 -84
34z"/>
</g>
</svg>
